<svg width="512" height="100" viewBox="0 0 512 100" fill="none" xmlns="http://www.w3.org/2000/svg">
<path d="M416.156 13.1747V14.9384C417.386 14.9384 418.708 15.7909 419.945 17.1261C421.083 18.3553 421.998 19.8315 422.518 20.8696V52.9294C414.055 40.146 407.508 31.0009 402.718 24.7203C397.636 18.0566 394.494 14.5674 393.125 13.3953L392.867 13.1747H379.344V14.9384C380.613 14.9384 382.169 15.8292 383.708 17.1888C385.103 18.4207 386.324 19.8923 387.07 20.9412V80.3088L379.699 88.6512L382.813 87.6444C385.339 86.8273 392.902 85.6187 402.381 87.5846L402.511 87.1699C402.66 87.2182 402.817 87.2487 402.976 87.2487L403.075 86.3774C402.975 86.356 402.876 86.3349 402.777 86.3142L402.906 85.9022C402.683 85.8167 402.325 85.5768 401.852 85.1424C401.398 84.7253 400.903 84.1902 400.404 83.6003C399.482 82.5104 398.589 81.2806 397.977 80.374V42.1138C413.571 64.874 426.025 81.6435 430.426 87.3369L432.026 89.4072L432.971 20.682V20.6703C432.971 19.0229 433.736 17.7296 434.748 16.7545C435.772 15.7677 437.009 15.15 437.803 14.8931L437.516 13.1747H416.156Z" fill="white"/>
<path fill-rule="evenodd" clip-rule="evenodd" d="M352.939 85.0464L352.985 85.926C353.054 85.926 353.123 85.9201 353.191 85.9102L353.254 86.345C356.214 86.0597 360.932 85.8318 365.614 86.0641C370.342 86.2986 374.857 86.9966 377.535 88.4582L379.938 89.7694L378.81 87.3289C373.888 76.6766 366.505 60.4564 360.354 46.4166C357.278 39.3957 354.513 32.9263 352.518 27.973C351.52 25.4953 350.718 23.4058 350.167 21.8203C349.891 21.0268 349.682 20.3698 349.542 19.8588C349.396 19.3207 349.349 19.0225 349.349 18.9066V18.7885L349.317 18.6746C349.118 17.9654 349.043 16.9606 349.346 16.1899C349.49 15.8243 349.711 15.5292 350.033 15.3192C350.358 15.1079 350.853 14.9384 351.621 14.9384V13.1747H328.898L328.74 14.925C329.969 15.1353 331.806 15.6205 333.311 16.3726C334.063 16.7487 334.685 17.1688 335.11 17.6169C335.527 18.0577 335.715 18.4828 335.715 18.9066C335.715 20.1749 335.224 22.2669 334.559 24.4555C333.905 26.6103 333.118 28.7471 332.596 30.0508L332.59 30.0647L313.959 81.6476C313.709 82.2486 313.243 83.1279 312.632 83.9027C311.997 84.7083 311.31 85.268 310.663 85.4334L310.747 85.8596C310.551 85.8835 310.369 85.9072 310.201 85.9304L310.265 86.8078C310.489 86.8078 310.708 86.7818 310.92 86.7341L311.005 87.1614C314.537 86.74 322.605 86.2579 331.062 87.2425L334.427 87.6342L331.716 85.6614C331.16 85.2572 330.503 84.8986 329.903 84.571L329.886 84.5619L329.88 84.5584L329.873 84.555C329.049 84.1051 328.33 83.7081 327.805 83.2517C327.308 82.8201 327.087 82.423 327.08 81.9784C327.231 79.2267 327.748 74.6579 328.809 69.9091C329.849 65.2581 331.391 60.5227 333.566 57.1467L349.171 53.0548L357.409 81.6591C356.801 82.1646 356.013 82.787 355.235 83.337C354.746 83.6824 354.275 83.99 353.863 84.2206C353.428 84.4642 353.141 84.575 352.999 84.6004L353.063 85.0342L353.022 85.0382L352.939 85.0464ZM337.034 48.4717C336.925 48.7511 336.819 49.0155 336.715 49.2616L345.928 46.9441L341.687 33.5698C340.868 36.5061 339.864 39.9692 338.898 43.0294C338.239 45.1194 337.593 47.0358 337.034 48.4717Z" fill="white"/>
<path d="M251.184 67.8484L250.315 67.6683C250.226 67.861 250.134 68.0603 250.037 68.2657L250.001 68.342L249.635 68.1226C249.265 68.5696 248.503 69.1557 247.401 69.8315C246.323 70.4927 244.998 71.1927 243.58 71.882C240.813 73.2267 237.741 74.5055 235.56 75.344H219.372V55.0657C226.79 55.1291 231.4 55.9561 232.745 56.3474L233.915 56.6879V55.5027C233.915 48.5447 235.715 38.6252 236.621 34.5235L234.927 33.9308L229.728 43.598H219.372V25.5204H239.021L248.912 34.1064V32.1341C248.912 31.494 248.757 30.6664 248.538 29.7986C248.315 28.9138 248.009 27.9231 247.674 26.9318C247.031 25.0313 246.266 23.0907 245.731 21.8193V7.3237L239.039 12.7338H197.103V14.4975C197.781 14.4975 198.58 14.762 199.473 15.2863C200.357 15.8055 201.266 16.5404 202.144 17.384C203.812 18.9854 205.292 20.9025 206.192 22.2509V44.125L196.159 54.2644L196.394 54.5878C196.26 54.6623 196.136 54.7487 196.033 54.8501C195.866 55.0145 195.74 55.2341 195.74 55.5027V56.5987L196.959 55.3662L197.187 55.6798C197.524 55.533 198.105 55.3955 198.903 55.2861C199.681 55.1793 200.599 55.1078 201.566 55.0639C203.146 54.9923 204.825 54.9959 206.192 55.0321V79.3014L206.192 79.3046C206.189 79.3171 206.178 79.3647 206.14 79.4557C206.087 79.5816 206.001 79.744 205.877 79.9415C205.63 80.3364 205.274 80.8065 204.86 81.305C204.034 82.2989 203.034 83.3334 202.368 83.9797L200.817 85.4851H239.368C239.988 85.4851 240.563 85.2092 241.049 84.8759C241.548 84.5326 242.052 84.0589 242.55 83.5112C243.545 82.4141 244.606 80.916 245.644 79.27C247.725 75.9705 249.793 71.9541 251.17 69.0428L250.8 68.8213C251.022 68.5246 251.184 68.1947 251.184 67.8484Z" fill="white"/>
<path d="M255.729 92.0988H296.625L296.898 91.7535C300.462 87.2433 307.538 74.8018 307.538 60.7937V57.4193L305.837 60.3623C304.104 63.3593 301.325 67.8516 298.625 71.5858C297.273 73.456 295.958 75.1113 294.817 76.2904C294.245 76.8813 293.739 77.329 293.312 77.6226C292.858 77.9353 292.614 77.9895 292.541 77.9895H276.18V18.2342C277.159 16.3587 278.765 13.6474 280.509 11.3886C281.412 10.2196 282.329 9.20202 283.194 8.4854C284.089 7.74343 284.788 7.44278 285.269 7.44278V5.67912H246.26L248.877 7.30369C250.738 8.4596 253.532 10.4123 255.849 12.4983C257.009 13.5423 258.024 14.5979 258.743 15.585C259.48 16.5966 259.819 17.4208 259.819 18.0248V86.632C259.529 87.2866 258.995 88.2069 258.282 88.9722C257.5 89.8113 256.628 90.3352 255.729 90.3352V92.0988Z" fill="white"/>
<path fill-rule="evenodd" clip-rule="evenodd" d="M5.98164 91.9794L8.91616 92.0981L8.91905 92.0982L9.08356 92.1046C9.19287 92.1088 9.35403 92.1148 9.56205 92.1223C9.97807 92.1373 10.5816 92.158 11.3326 92.1811C12.8344 92.2271 14.9269 92.2823 17.2902 92.3192C22.0084 92.3927 27.8362 92.3934 32.1954 92.0966L34.5165 91.9386L32.6996 90.5284C31.9819 89.9714 30.895 89.0008 29.9971 87.9276C29.5487 87.3916 29.1636 86.8491 28.8941 86.3359C28.6203 85.8145 28.496 85.38 28.496 85.0442V20.7542C31.9263 21.0912 35.6667 21.8128 39.0189 23.0132C42.7116 24.3356 45.826 26.2005 47.599 28.6699C49.3285 31.0787 49.8642 34.1766 48.1795 38.2248C46.4729 42.3257 42.49 47.3781 35.1732 53.5128L34.6216 53.9753L34.9672 54.598C38.1785 60.384 44.6866 69.6855 50.3626 77.5052C53.2064 81.4229 55.8508 84.9816 57.7841 87.5607C58.7509 88.8504 59.54 89.8953 60.0876 90.618C60.3614 90.9794 60.5748 91.2602 60.7198 91.4508L60.9273 91.723L60.9455 91.7492C60.9666 91.7792 60.9962 91.8204 61.0347 91.8718C61.1115 91.9746 61.2238 92.1185 61.374 92.2957C61.6745 92.65 62.1272 93.1379 62.753 93.6978C64.0054 94.8183 65.9486 96.2247 68.7464 97.4247C74.354 99.83 83.3096 101.371 96.8758 98.2478L100.157 97.4925L96.929 96.5457C93.7459 95.6121 88.4778 93.5267 83.1107 90.3226C77.7389 87.1158 72.333 82.8268 68.7984 77.5114C62.3327 67.7885 59.0728 63.6213 56.5839 60.4404C55.7681 59.3978 55.0429 58.4709 54.3163 57.4911C60.158 53.5244 66.4433 46.3379 68.2426 37.9915C69.1875 33.6083 68.8928 28.9065 66.6431 24.2181C64.4008 19.5452 60.2457 14.9458 53.5712 10.6962C52.7 10.0273 51.4411 9.50915 49.9646 9.09196C48.4493 8.66379 46.6231 8.32 44.5811 8.04502C40.496 7.49491 35.4681 7.20998 30.1746 7.10127C19.5834 6.88376 7.83972 7.3702 0.255605 7.88586L0 9.59122C1.74536 10.2262 4.4555 11.5299 6.84784 13.3505C9.25977 15.186 11.2114 17.4417 11.6964 19.951C12.2225 22.6733 12.34 27.4385 12.2604 32.3628C12.1841 37.0751 11.9296 41.851 11.7089 44.943L1.25231 54.0199L4.05003 53.7342C5.41042 53.5953 7.42283 53.6444 9.0518 54.1967C9.85971 54.4707 10.5177 54.8496 10.9675 55.338C11.4012 55.8088 11.6808 56.4219 11.6808 57.2664V82.3986C11.6808 85.5389 10.8206 87.5783 10.0063 88.8126C9.59656 89.4338 9.19218 89.8605 8.90043 90.1258C8.75449 90.2586 8.63675 90.3509 8.56074 90.4069C8.52275 90.4349 8.49523 90.4537 8.4799 90.4639L8.46886 90.4713L8.46674 90.4726L8.46587 90.4731L5.98164 91.9794Z" fill="white"/>
<path d="M474.327 44.4798L473.921 46.1504C476.022 47.1697 479.171 48.8284 481.783 50.4867C483.092 51.318 484.238 52.1311 485.047 52.8491C485.452 53.209 485.747 53.5229 485.935 53.7829C486.125 54.047 486.142 54.171 486.143 54.18V75.9899C477.696 78.0815 471.247 75.7682 466.556 71.9974C461.707 68.099 458.723 62.6213 457.473 58.7751C455.862 53.3627 455.115 40.0172 464.983 30.1011C474.891 20.1449 485.206 21.182 488.956 22.7989L489.526 23.0448L492.214 20.4371C499.699 14.2475 501.595 6.03337 501.595 2.5927V0L499.966 2.05504C496.693 6.18254 493.195 8.39011 491.615 9.11776C487.026 7.05193 480.75 6.94899 474.194 7.89326C467.1 8.91506 461.344 11.13 456.507 14.6554C451.675 18.177 447.81 22.969 444.44 29.0722C440.687 35.8692 439.774 43.9133 440.237 51.0852C440.7 58.2515 442.545 64.6641 444.432 68.2495L444.436 68.2576C446.153 71.4369 449.676 76.2644 454.71 80.5277C459.747 84.7936 466.35 88.5382 474.22 89.4471C489.698 91.2348 498.692 86.3435 501.366 83.4254L501.595 83.1748V54.18C501.595 53.8101 501.857 53.2258 502.564 52.4394C503.242 51.6861 504.206 50.8806 505.317 50.0828C507.535 48.4905 510.213 47.017 512 46.1504L511.594 44.4798H474.327Z" fill="white"/>
<path fill-rule="evenodd" clip-rule="evenodd" d="M149.174 13.0522L148.902 12.7338H111.209L110.802 14.4044C114.789 16.3384 116.934 19.1841 117.571 20.4266V63.8035C117.199 65.8286 116.157 68.7913 114.254 71.1521C112.349 73.5141 109.632 75.2268 105.834 74.9064C101.962 74.5797 99.4248 72.69 97.7962 70.4392C96.1587 68.176 95.45 65.5538 95.3026 63.8441V20.2294C95.3026 18.944 95.9819 17.7116 96.9502 16.6458C97.9122 15.5869 99.0746 14.7885 99.828 14.3898L99.3928 12.7338H73.5426L75.6608 14.3146C76.6273 15.0359 78.1257 16.2294 79.4661 17.4542C80.1367 18.0669 80.7562 18.6771 81.2468 19.2325C81.6801 19.7229 81.9707 20.1243 82.123 20.4182V63.8801C82.123 66.6604 83.0675 72.3498 86.4812 77.3726C89.9309 82.4484 95.8856 86.8078 105.755 86.8078C115.382 86.8078 121.483 82.7252 125.127 77.7863C128.734 72.8995 129.919 67.2032 129.842 63.8702V20.2294C129.842 19.9268 129.98 19.4921 130.315 18.9325C130.642 18.3876 131.109 17.801 131.653 17.2151C132.637 16.1559 133.808 15.1661 134.669 14.5161C135.131 14.5743 135.694 14.7699 136.343 15.1132C137.117 15.5228 137.941 16.1031 138.754 16.7695C140.264 18.0067 141.669 19.4822 142.567 20.5421V81.1241L136.563 86.3669H156.655V84.6032C156.207 84.6032 155.649 84.2551 155.059 83.4755C154.543 82.7924 154.147 81.9632 153.929 81.369V41.4471C157.493 46.2806 161.592 52.4654 165.715 58.6872L165.74 58.7253L165.741 58.7265C170.218 65.4818 174.719 72.2749 178.549 77.3437C180.464 79.8778 182.234 82.0122 183.767 83.5027C184.532 84.2468 185.265 84.8567 185.949 85.2758C186.614 85.6824 187.351 85.9827 188.089 85.9229L188.923 85.8556V18.9066C188.923 18.7406 189.019 18.4389 189.348 17.9953C189.663 17.5708 190.119 17.1102 190.66 16.6465C191.741 15.7207 193.052 14.8713 193.925 14.3773L196.829 12.7338H172.107V14.4975C173.191 14.4975 174.331 15.1695 175.389 16.217C176.35 17.1684 177.119 18.3081 177.561 19.12V51.1066C170.42 38.8725 155.984 21.0066 149.174 13.0522Z" fill="white"/>
</svg>
